<svg id="svg" version="1.1" xmlns="http://www.w3.org/2000/svg" xmlns:xlink="http://www.w3.org/1999/xlink" width="800" height="800" viewBox="0, 0, 358,358"><g id="svgg"><path id="path0" d="M271.988 127.377 C 261.852 132.395,262.664 153.311,273.414 164.095 C 288.179 178.906,301.616 159.925,291.363 138.740 C 286.813 129.340,278.213 124.296,271.988 127.377 M283.555 131.425 C 284.955 132.149,287.053 134.535,287.744 136.190 C 290.559 142.927,282.905 143.243,279.675 136.523 C 277.752 132.524,279.991 129.582,283.555 131.425 M207.813 144.577 C 197.419 147.703,196.294 167.391,205.806 179.699 C 214.542 191.003,226.666 188.673,228.929 175.256 C 231.534 159.811,218.778 141.279,207.813 144.577 M216.232 149.015 C 218.114 150.118,220.104 152.868,220.483 154.890 C 221.174 158.573,217.701 159.900,214.476 157.186 C 209.243 152.783,210.744 145.799,216.232 149.015 M258.540 188.090 C 238.238 192.134,221.042 206.987,225.528 216.602 C 228.272 222.480,234.415 224.789,247.266 224.770 C 274.730 224.731,289.039 213.411,282.778 196.676 C 280.002 189.257,270.169 185.773,258.540 188.090 " stroke="none" fill="#363249" fill-rule="evenodd"></path><path id="path1" d="M189.258 72.116 C 176.048 73.421,167.003 75.236,156.055 78.778 C 149.726 80.826,150.085 80.555,148.534 84.450 C 146.256 90.171,142.321 94.762,138.028 96.709 C 136.771 97.279,135.303 97.984,134.766 98.274 C 134.229 98.565,133.174 99.112,132.422 99.490 C 131.670 99.868,130.477 100.665,129.771 101.261 C 125.589 104.791,119.281 106.124,111.930 105.031 L 108.984 104.592 105.957 107.273 C 79.397 130.797,63.715 160.472,58.295 197.461 C 57.324 204.082,57.078 328.451,58.030 331.316 C 59.683 336.293,64.470 339.645,69.903 339.629 C 73.342 339.619,74.375 339.196,82.124 334.619 L 87.099 331.680 93.325 340.976 C 101.427 353.072,102.653 354.099,108.984 354.088 C 115.380 354.077,117.880 351.978,122.354 342.865 L 125.373 336.716 128.018 338.337 C 186.563 374.197,268.099 359.421,311.549 305.078 C 381.860 217.139,329.853 87.521,218.359 72.819 C 213.724 72.208,193.317 71.715,189.258 72.116 M280.712 127.325 C 293.791 133.110,299.845 156.366,290.861 166.310 C 281.653 176.502,264.927 161.446,264.713 142.773 C 264.574 130.514,271.909 123.431,280.712 127.325 M280.026 131.604 C 277.456 133.686,280.966 140.431,285.043 141.247 C 286.595 141.557,287.770 140.898,288.059 139.554 C 288.967 135.345,282.864 129.306,280.026 131.604 M215.828 145.482 C 227.545 151.152,233.524 173.087,226.029 182.913 C 219.053 192.059,205.837 185.548,200.814 170.490 C 195.243 153.786,203.740 139.633,215.828 145.482 M211.942 149.051 C 209.805 151.188,213.588 157.712,217.375 158.423 C 221.717 159.237,221.008 152.406,216.432 149.322 C 214.908 148.295,212.824 148.170,211.942 149.051 M272.175 187.698 C 285.918 190.938,289.133 208.752,277.547 217.461 C 270.685 222.620,261.176 225.065,247.656 225.148 C 232.192 225.244,224.440 221.150,224.444 212.891 C 224.451 199.723,254.935 183.633,272.175 187.698 " stroke="none" fill="#f8f8f7" fill-rule="evenodd"></path><path id="path2" d="M103.137 44.575 C 91.856 49.077,96.871 74.933,112.098 90.770 C 131.058 110.490,145.584 97.008,134.043 70.401 C 130.357 61.901,125.495 55.496,117.356 48.418 C 113.467 45.036,106.619 43.185,103.137 44.575 " stroke="none" fill="#f3d35b" fill-rule="evenodd"></path><path id="path3" d="M93.382 59.592 C 73.446 63.915,78.053 89.929,100.781 101.369 C 110.306 106.162,121.622 106.374,128.619 101.888 L 130.650 100.586 128.118 100.331 C 114.832 98.990,100.261 80.271,97.075 60.449 C 96.813 58.818,96.880 58.834,93.382 59.592 " stroke="none" fill="#5cac4c" fill-rule="evenodd"></path><path id="path4" d="M126.271 40.001 C 122.248 41.313,114.542 48.398,117.090 48.443 C 117.673 48.453,122.685 52.984,124.646 55.273 C 136.019 68.552,141.498 88.056,136.134 96.162 C 134.957 97.940,135.269 98.004,138.206 96.582 C 151.626 90.085,155.707 64.309,145.721 49.107 C 140.742 41.527,132.879 37.846,126.271 40.001 M295.013 153.125 C 295.013 153.877,295.093 154.185,295.191 153.809 C 295.289 153.433,295.289 152.817,295.191 152.441 C 295.093 152.065,295.013 152.373,295.013 153.125 M245.206 225.282 C 245.900 225.368,247.130 225.370,247.941 225.285 C 248.751 225.201,248.184 225.130,246.680 225.128 C 245.176 225.126,244.513 225.196,245.206 225.282 " stroke="none" fill="#9e9c98" fill-rule="evenodd"></path><path id="path5" d="M219.531 148.169 C 219.531 148.236,220.103 148.808,220.801 149.439 L 222.070 150.586 220.923 149.316 C 219.854 148.133,219.531 147.867,219.531 148.169 M264.347 187.391 C 265.040 187.478,266.271 187.479,267.081 187.394 C 267.892 187.310,267.324 187.239,265.820 187.238 C 264.316 187.236,263.653 187.305,264.347 187.391 M279.077 215.723 L 277.930 216.992 279.199 215.845 C 279.897 215.214,280.469 214.643,280.469 214.575 C 280.469 214.274,280.146 214.539,279.077 215.723 " stroke="none" fill="#7e685a" fill-rule="evenodd"></path><path id="path6" d="M115.918 105.354 C 116.401 105.447,117.192 105.447,117.676 105.354 C 118.159 105.261,117.764 105.185,116.797 105.185 C 115.830 105.185,115.435 105.261,115.918 105.354 " stroke="none" fill="#bcae9c" fill-rule="evenodd"></path><path id="path7" d="M198.919 160.156 C 198.919 160.908,198.999 161.216,199.097 160.840 C 199.196 160.464,199.196 159.849,199.097 159.473 C 198.999 159.097,198.919 159.404,198.919 160.156 M284.474 203.711 C 284.478 204.570,284.558 204.876,284.651 204.390 C 284.745 203.904,284.741 203.201,284.643 202.827 C 284.546 202.454,284.469 202.852,284.474 203.711 " stroke="none" fill="#c8c4bf" fill-rule="evenodd"></path><path id="path8" d="M112.891 91.992 C 114.058 93.174,115.100 94.141,115.208 94.141 C 115.315 94.141,114.448 93.174,113.281 91.992 C 112.114 90.811,111.072 89.844,110.964 89.844 C 110.857 89.844,111.724 90.811,112.891 91.992 " stroke="none" fill="#ccbc84" fill-rule="evenodd"></path></g></svg>